<svg width="32" height="32" viewBox="0 0 32 32" fill="none" xmlns="http://www.w3.org/2000/svg">
<rect x="0.5" y="0.5" width="31" height="31" rx="1.5" fill="white" stroke="#D3DCE6"/>
<path d="M13.0367 10.2209C13.5276 10.2209 13.9256 9.82295 13.9256 9.33203C13.9256 8.84111 13.5276 8.44314 13.0367 8.44314V10.2209ZM8.44412 13.0357C8.44412 13.5267 8.84209 13.9246 9.33301 13.9246C9.82393 13.9246 10.2219 13.5267 10.2219 13.0357H8.44412ZM21.7772 13.0357C21.7772 13.5267 22.1751 13.9246 22.6661 13.9246C23.157 13.9246 23.5549 13.5267 23.5549 13.0357H21.7772ZM18.9623 8.44314C18.4714 8.44314 18.0735 8.84111 18.0735 9.33203C18.0735 9.82295 18.4714 10.2209 18.9623 10.2209V8.44314ZM18.9623 21.7753C18.4714 21.7753 18.0735 22.1733 18.0735 22.6642C18.0735 23.1551 18.4714 23.5531 18.9623 23.5531V21.7753ZM23.5549 18.9605C23.5549 18.4696 23.157 18.0716 22.6661 18.0716C22.1751 18.0716 21.7772 18.4696 21.7772 18.9605H23.5549ZM10.2219 18.9605C10.2219 18.4696 9.82393 18.0716 9.33301 18.0716C8.84209 18.0716 8.44412 18.4696 8.44412 18.9605H10.2219ZM13.0367 23.5531C13.5276 23.5531 13.9256 23.1551 13.9256 22.6642C13.9256 22.1733 13.5276 21.7753 13.0367 21.7753V23.5531ZM13.0367 8.44314H10.8145V10.2209H13.0367V8.44314ZM10.8145 8.44314C9.50537 8.44314 8.44412 9.50439 8.44412 10.8135H10.2219C10.2219 10.4862 10.4872 10.2209 10.8145 10.2209V8.44314ZM8.44412 10.8135V13.0357H10.2219V10.8135H8.44412ZM23.5549 13.0357V10.8135H21.7772V13.0357H23.5549ZM23.5549 10.8135C23.5549 9.50439 22.4937 8.44314 21.1846 8.44314V10.2209C21.5118 10.2209 21.7772 10.4862 21.7772 10.8135H23.5549ZM21.1846 8.44314H18.9623V10.2209H21.1846V8.44314ZM18.9623 23.5531H21.1846V21.7753H18.9623V23.5531ZM21.1846 23.5531C22.4937 23.5531 23.5549 22.4918 23.5549 21.1827H21.7772C21.7772 21.51 21.5118 21.7753 21.1846 21.7753V23.5531ZM23.5549 21.1827V18.9605H21.7772V21.1827H23.5549ZM8.44412 18.9605V21.1827H10.2219V18.9605H8.44412ZM8.44412 21.1827C8.44412 22.4918 9.50537 23.5531 10.8145 23.5531V21.7753C10.4872 21.7753 10.2219 21.51 10.2219 21.1827H8.44412ZM10.8145 23.5531H13.0367V21.7753H10.8145V23.5531Z" fill="#25265E" fill-opacity="0.67"/>
</svg>
