<svg width="84" height="28" viewBox="0 0 84 28" fill="none" xmlns="http://www.w3.org/2000/svg">
<path d="M1.11816 10.4753C1.11816 10.2644 1.23036 10.0695 1.41268 9.96352L5.28199 7.71535C5.47927 7.60072 5.72658 7.74306 5.72658 7.97122V24.2522C5.72658 24.3653 5.63488 24.457 5.52177 24.457H1.32298C1.20986 24.457 1.11816 24.3653 1.11816 24.2522V10.4753Z" fill="url(#paint0_linear_10231_22577)"/>
<path d="M1.11817 9.80559C1.11817 9.73246 1.15716 9.66487 1.22048 9.62827L5.41927 7.20109C5.55581 7.12216 5.72659 7.2207 5.72659 7.37841L5.72659 15.7523C5.72659 15.9219 5.58904 16.0595 5.41936 16.0595H1.4254C1.25572 16.0595 1.11817 15.9219 1.11817 15.7523V9.80559Z" fill="url(#paint1_linear_10231_22577)"/>
<path d="M12.7621 6.95426L1.5295 13.4037C1.27506 13.5498 1.11816 13.8208 1.11816 14.1142V18.9028L13.2729 11.8852C13.5264 11.7388 13.6825 11.4683 13.6825 11.1757V7.48712C13.6825 7.01477 13.1717 6.71906 12.7621 6.95426Z" fill="url(#paint2_linear_10231_22577)"/>
<path fill-rule="evenodd" clip-rule="evenodd" d="M1.61328 18.6167C1.3186 18.7756 1.11835 19.087 1.11835 19.4453C1.11835 19.4477 1.11836 19.4501 1.11837 19.4525L1.11832 19.4524L1.11832 18.3359L1.61328 18.6167Z" fill="#6501E5"/>
<path fill-rule="evenodd" clip-rule="evenodd" d="M13.245 11.9059C13.2859 11.8085 13.3084 11.7016 13.3084 11.5894C13.3084 11.4151 13.254 11.2535 13.1611 11.1206L13.6849 10.8242V11.1789C13.6849 11.4714 13.529 11.7417 13.2758 11.8881L13.245 11.9059Z" fill="#9327FE"/>
<path d="M13.1679 11.1328C13.0275 10.701 5.82446 5.86233 0.866648 2.51035C0.699376 2.39725 0.780383 2.13667 0.982299 2.13667L6.88706 2.13663C6.92861 2.13663 6.96918 2.14926 7.00337 2.17286L13.331 6.53831C13.5527 6.69124 13.6851 6.94336 13.6851 7.21267L13.6851 10.8323L13.1679 11.1328Z" fill="#9327FE"/>
<path d="M16.6381 15.6037C16.4661 15.5517 16.2082 15.5171 15.9502 15.5171C15.2624 15.5171 14.179 15.7944 13.7319 16.7649V15.6037H11.2041V24.2176H13.8179V20.4566C13.8179 18.7408 14.7637 18.1168 15.8127 18.1168C16.0706 18.1168 16.3458 18.1341 16.6381 18.2035V15.6037Z" fill="#0556F3"/>
<path d="M22.0436 22.0511C21.0634 22.0511 20.1176 21.3405 20.1176 19.902C20.1176 18.4461 21.0634 17.7702 22.0436 17.7702C23.041 17.7702 23.9696 18.4461 23.9696 19.902C23.9696 21.3578 23.041 22.0511 22.0436 22.0511ZM22.0436 15.3438C19.4986 15.3438 17.5038 17.2329 17.5038 19.902C17.5038 22.571 19.4986 24.4775 22.0436 24.4775C24.6058 24.4775 26.5834 22.571 26.5834 19.902C26.5834 17.2329 24.6058 15.3438 22.0436 15.3438Z" fill="#0556F3"/>
<path d="M27.6641 24.7028C27.9048 26.2454 29.4697 27.7705 31.9287 27.7705C35.1272 27.7705 36.5029 25.6214 36.5029 23.143V15.6037H34.0094V16.5223C33.7687 16.0717 33.0293 15.4477 31.6364 15.4477C29.2977 15.4477 27.6641 17.3889 27.6641 19.6593C27.6641 22.0511 29.3665 23.8536 31.6364 23.8536C32.8745 23.8536 33.6139 23.351 33.9235 22.883V23.2816C33.9235 24.8415 33.1152 25.4828 31.8083 25.4828C30.8282 25.4828 30.1403 24.8762 29.9683 24.0442L27.6641 24.7028ZM32.1179 21.5658C31.0689 21.5658 30.2779 20.8379 30.2779 19.6593C30.2779 18.4808 31.1377 17.7528 32.1179 17.7528C33.098 17.7528 33.9407 18.4808 33.9407 19.6593C33.9407 20.8379 33.184 21.5658 32.1179 21.5658Z" fill="#0556F3"/>
<path d="M44.1452 15.6037C43.9733 15.5517 43.7153 15.5171 43.4574 15.5171C42.7696 15.5171 41.6862 15.7944 41.2391 16.7649V15.6037H38.7113V24.2176H41.3251V20.4566C41.3251 18.7408 42.2709 18.1168 43.3198 18.1168C43.5778 18.1168 43.8529 18.1341 44.1452 18.2035V15.6037Z" fill="#0556F3"/>
<path d="M45.2821 21.8431C45.2821 23.2123 46.3654 24.4602 48.2398 24.4602C49.3748 24.4602 50.2002 23.9749 50.6473 23.247C50.6473 23.8363 50.7161 24.1482 50.7333 24.2176H53.0891C53.0719 24.1309 52.986 23.559 52.986 22.883V18.6714C52.986 16.9036 51.9714 15.3438 49.2028 15.3438C46.6922 15.3438 45.5572 16.9729 45.454 18.2035L47.7239 18.6714C47.7755 18.0302 48.2742 17.4062 49.1856 17.4062C50.011 17.4062 50.4409 17.8395 50.4409 18.3421C50.4409 18.6368 50.2862 18.8621 49.8219 18.9314L47.8099 19.2434C46.3998 19.4513 45.2821 20.3179 45.2821 21.8431ZM48.8761 22.5537C48.1538 22.5537 47.8615 22.1204 47.8615 21.6698C47.8615 21.0632 48.2742 20.8032 48.8245 20.7166L50.4409 20.4566V20.8379C50.4409 22.1724 49.6499 22.5537 48.8761 22.5537Z" fill="#0556F3"/>
<path d="M57.7991 24.2176V19.2607C57.7991 18.4808 58.2978 17.7702 59.2092 17.7702C60.155 17.7702 60.5849 18.4115 60.5849 19.226V24.2176H63.1643V19.2434C63.1643 18.4808 63.663 17.7702 64.5916 17.7702C65.5202 17.7702 65.9501 18.4115 65.9501 19.226V24.2176H68.478V18.6368C68.478 16.297 66.9303 15.3438 65.3139 15.3438C64.1617 15.3438 63.3363 15.725 62.6657 16.6956C62.2357 15.8464 61.3587 15.3438 60.1378 15.3438C59.2092 15.3438 58.1087 15.829 57.6788 16.5916V15.6037H55.1853V24.2176H57.7991Z" fill="#0556F3"/>
<path d="M83.9164 24.2176V21.9471H79.9096L83.8476 17.7702V15.6037H76.8487V17.8568H80.5115L76.7456 21.8951V24.2176H83.9164Z" fill="#0556F3"/>
<path d="M73.8423 24.2006H70.8369L71.7211 18.5535H70.8369V15.4062H74.7211V18.5535L73.8423 24.2006Z" fill="#065AFF"/>
<path d="M74.7211 9.71875H70.8369V13.4425H74.7211V9.71875Z" fill="#065AFF"/>
<defs>
<linearGradient id="paint0_linear_10231_22577" x1="3.42237" y1="22.6906" x2="3.42237" y2="14.9155" gradientUnits="userSpaceOnUse">
<stop stop-color="#00A3FF"/>
<stop offset="1" stop-color="#0597EA"/>
</linearGradient>
<linearGradient id="paint1_linear_10231_22577" x1="3.42237" y1="15.1656" x2="3.42237" y2="11.2313" gradientUnits="userSpaceOnUse">
<stop stop-color="#00A3FF"/>
<stop offset="1" stop-color="#0597EA"/>
</linearGradient>
<linearGradient id="paint2_linear_10231_22577" x1="5.08316" y1="13.7567" x2="14.5406" y2="8.45086" gradientUnits="userSpaceOnUse">
<stop stop-color="#6501E5"/>
<stop offset="1" stop-color="#5F01D8"/>
</linearGradient>
</defs>
</svg>
