<?xml version="1.0" encoding="UTF-8"?><svg id="merck_728x90" xmlns="http://www.w3.org/2000/svg" width="728" height="90" viewBox="0 0 728 90"><defs><style>.cls-1{fill:none;}.cls-2{fill:#503291;}</style></defs><rect class="cls-1" width="728" height="90"/><g><path class="cls-2" d="M697.24,50.73c.76-.02,1.42-.36,1.9-.84,0,0,.34-.34,.75-.76,.24-.24,.57-.41,.92-.45,.06,0,.24-.01,.26-.01,.13,0,.25,.01,.38,.03,.39,.05,.77,.16,1.11,.32l3.25,1.35s.79,.37,1.45,.37h.48c.14,0,.26-.13,.26-.28v-1.2c0-.83-.49-1.61-1.3-1.95l-.7-.29c-.59-.22-1.24-.65-1.57-.97,0,0-.65-.78,.11-1.53l2.89-2.9c.38-.4,.57-.91,.58-1.42,0,0,0-.22-.06-.43-.05-.16-.15-.3-.22-.37-.19-.19-.44-.28-.76-.29h-.46c-.76,.02-1.42,.35-1.9,.82-.02,.02-1.91,1.91-2.4,2.41l-2.64,2.66v-4.19c0-.94-.77-1.71-1.71-1.71h-.74c-.19,0-.47,0-.61,.07-.11,.06-.11,.18-.11,.29v11.02c0,.14,.11,.26,.25,.26h.6Z"/><path class="cls-2" d="M683.5,49.31s-.61-.17-1.82-1.13c-.63-.49-1.09-.86-1.29-1.02,.22-.14,.96-.44,1.62-1.2,.41-.48,.64-1.07,.64-1.81,0-.7-.2-1.36-.61-1.97-.4-.62-.92-1.15-1.56-1.61-.64-.46-1.36-.82-2.16-1.08-.8-.26-1.57-.4-2.34-.4h-4.7c-.14,0-.25,.11-.25,.25v11.01c0,.11,0,.23,.11,.29,.15,.08,.47,.09,.66,.09,.27,0,.55-.03,.81-.11,.4-.13,.74-.41,1-.75,.44-.59,.55-1.25,.55-1.96v-4.76c0-.06,.01-.22,.04-.32,.03-.11,.08-.21,.08-.21,.36-.65,1.58-.91,2.9-.58,1.76,.44,2.27,1.66,2.09,2.18-.2,.56-.83,.91-1.62,.91-.38,0-.77-.07-1.17-.2-.01,0-.26-.07-.46-.14-.09-.03-.27-.12-.41-.12s-.2,.11-.2,.32v1.24c0,.43,.17,.81,.43,1.04,.01,.01,3.84,3.03,3.84,3.03,.37,.27,.78,.42,1.21,.42h2.53c.18,0,.27-.11,.27-.33v-.81c0-.13-.1-.25-.18-.29"/><path class="cls-2" d="M668.19,47.71h-3.37c-.48,0-.92-.13-1.34-.31-.36-.16-.92-.64-1.08-.82-.31-.34-.55-.74-.72-1.18-.17-.45-.26-.91-.26-1.38,0-.61,.17-1.08,.52-1.41,.04-.04,.19-.16,.36-.27,.17-.1,.36-.15,.49-.18,.2-.05,.42-.08,.66-.08s.45,.03,.65,.08c.38,.07,.75,.22,1.12,.46,.53,.33,1.08,.84,1.46,1.33h-3.51c-.21,0-.32,.09-.32,.27,0,.36,.06,.6,.2,.89,.14,.29,.82,1.33,2.2,1.33h3.27c.57,0,.97-.15,1.19-.46,.22-.3,.28-.56,.28-.97,0-.67-.18-1.32-.53-2.03-.35-.71-.83-1.35-1.43-1.93-.6-.58-1.3-1.05-2.1-1.41-.8-.37-1.63-.55-2.5-.55h-4.8c-.14,0-.25,.11-.25,.25v4.78c0,.9,.17,1.74,.52,2.54,.35,.8,.82,1.5,1.41,2.1,.59,.6,1.28,1.07,2.08,1.42,.79,.35,1.64,.54,2.54,.54h4.82c.14,0,.25-.11,.25-.25v-.97c0-.56-.16-1-.48-1.32-.31-.32-.75-.48-1.31-.48"/><path class="cls-2" d="M657.29,40.81c0-.94-.77-1.71-1.71-1.71h-1.81c-.09,0-.17,.04-.23,.1l-3.63,3.41c-1.24,1.17-2.92,1.82-4.76,1.82s-3.66-.72-4.91-1.97c0,0-2.67-2.51-2.69-2.53-.51-.48-1.22-.81-2.03-.83h-2.17c-.19,0-.34,.16-.34,.34v9.58c0,.94,.76,1.71,1.71,1.71h1.11c.19,0,.34-.16,.34-.34v-3.41c0-.89,.73-1.63,1.6-1.63,1.63,0,2.8,1.4,3.86,2.33,1.29,1.14,2.29,2.25,3.52,2.25s2.22-1.1,3.52-2.25c1.06-.93,2.23-2.33,3.86-2.33,.87,0,1.6,.73,1.6,1.61v2.06c0,.94,.77,1.71,1.71,1.71h.74c.19,0,.37,0,.37,0h0c.19,0,.34-.16,.34-.34v-9.58"/><path class="cls-2" d="M695.08,45.86h-1.76c-.65,0-1.07,.28-1.26,.84-.12,.37-.32,.66-.6,.88-.28,.22-.63,.33-1.07,.33-.41,0-.82-.12-1.24-.35-.42-.23-.8-.54-1.14-.91-.34-.37-.61-.79-.82-1.25-.21-.46-.32-.92-.32-1.37,0-.57,.17-1.04,.52-1.4,.35-.36,.78-.53,1.31-.53,.6,0,1.19,.22,1.78,.66,.24,.18,.5,.27,.77,.27s.56-.15,.86-.45l1.19-1.18c.08-.07,.1-.14,.08-.2-.02-.06-.07-.13-.15-.21-.65-.59-1.35-1.05-2.12-1.38-.77-.33-1.57-.5-2.41-.5h-4.71c-.18,0-.27,.11-.27,.32v4.7c0,.91,.18,1.77,.55,2.59,.37,.82,.86,1.54,1.49,2.16,.62,.62,1.34,1.12,2.14,1.49,.8,.37,1.63,.56,2.49,.56,.69,0,1.33-.11,1.92-.35,.59-.23,1.1-.56,1.53-.98,.43-.42,.78-.92,1.04-1.5,.26-.58,.4-1.22,.45-1.9,.01-.21-.07-.32-.25-.32"/></g></svg>