<?xml version="1.0" encoding="UTF-8"?><svg id="cta" xmlns="http://www.w3.org/2000/svg" width="728" height="90" viewBox="0 0 728 90"><defs><style>.cls-1{fill:none;}.cls-2{fill:#ffc832;}.cls-3{fill:#503291;}</style></defs><rect class="cls-1" width="728" height="90"/><g><rect class="cls-3" x="445" y="25" width="125" height="40" rx="3.99" ry="3.99"/><g><path class="cls-2" d="M470.42,37.76c0,2.7-1.65,4.17-4.84,4.17s-4.84-1.44-4.84-4.17v-6.96h2.82v6.81c0,1.51,.6,2.23,2.02,2.23s2.03-.66,2.03-2.23v-6.81h2.82v6.96Z"/><path class="cls-2" d="M480.8,41.7h-2.66v-4.08c0-.87-.09-1.47-.25-1.77-.17-.31-.57-.47-1.19-.47-.46,0-.97,.15-1.53,.48v5.83h-2.64v-8.22h2.64v.9c.96-.75,1.89-1.12,2.79-1.12,1.83,0,2.83,1.11,2.83,3.09v5.35Z"/><path class="cls-2" d="M485.48,41.7h-2.64v-11.4h2.64v11.4Z"/><path class="cls-2" d="M495.7,38.07h-6.03c.09,1.33,.99,2,2.73,2,1.02,0,1.96-.31,2.85-.95h.3v2.12c-1.09,.46-2.25,.69-3.43,.69-3.27,0-5.12-1.52-5.12-4.29s1.8-4.41,4.67-4.41c2.68,0,4.04,1.38,4.04,3.93v.92Zm-2.62-1.54c-.02-1.09-.56-1.67-1.62-1.67s-1.71,.57-1.8,1.67h3.42Z"/><path class="cls-2" d="M502.16,40.83c-1.08,.85-1.68,1.1-2.83,1.1-1.54,0-2.76-1.08-2.76-2.58,0-.96,.36-1.68,1.11-2.15,.74-.49,2.24-.79,4.5-.9v-.04c0-.82-.6-1.2-2.19-1.2-.57,0-1.38,.19-2.46,.58h-.24v-2c1.16-.27,2.22-.4,3.24-.4,3,0,4.24,.9,4.24,2.86v5.59h-2.61v-.87Zm0-2.98c-1.23,.09-2.01,.24-2.37,.41-.36,.18-.54,.46-.54,.88,0,.75,.41,1,1.4,1,.54,0,1.05-.19,1.51-.58v-1.71Z"/><path class="cls-2" d="M506.27,39.11h.24c1.03,.7,2.11,1.06,3.24,1.06,1.02,0,1.53-.23,1.53-.68,0-.22-.11-.38-.33-.49-.21-.1-.71-.23-1.53-.35-2.07-.31-3.1-1.19-3.1-2.64,0-1.59,1.63-2.76,4.2-2.76,1.08,0,2.12,.2,3.09,.58v2.07h-.23c-.93-.6-1.88-.9-2.87-.9-.82,0-1.5,.23-1.5,.68,0,.23,.09,.39,.3,.51,.21,.1,.76,.24,1.69,.39,1.17,.19,1.96,.51,2.37,.93,.39,.42,.6,.95,.6,1.58,0,1.69-1.63,2.83-4.27,2.83-1.27,0-2.42-.23-3.43-.66v-2.16Z"/><path class="cls-2" d="M523.61,41.7h-2.66v-4.08c0-.87-.09-1.47-.25-1.77-.17-.31-.57-.47-1.19-.47-.46,0-.97,.15-1.53,.48v5.83h-2.64v-11.4h2.64v4.08c.96-.75,1.89-1.12,2.79-1.12,1.83,0,2.83,1.11,2.83,3.09v5.35Z"/><path class="cls-2" d="M535.67,41.63c-.57,.15-1.26,.24-2.07,.24-2.04,0-3.04-.72-3.04-2.76v-3.84h-1.08v-1.79h1.08v-2.35h2.64v2.35h2.48v1.79h-2.48v2.91c0,.6,.03,1,.08,1.2,.09,.39,.41,.69,1.17,.69,.33,0,.66-.08,1-.24h.23v1.8Z"/><path class="cls-2" d="M545.13,41.7h-2.66v-4.08c0-.87-.09-1.47-.25-1.77-.17-.31-.57-.47-1.19-.47-.46,0-.97,.15-1.53,.48v5.83h-2.64v-11.4h2.64v4.08c.96-.75,1.89-1.12,2.79-1.12,1.83,0,2.83,1.11,2.83,3.09v5.35Z"/><path class="cls-2" d="M555.27,38.07h-6.03c.09,1.33,.99,2,2.73,2,1.02,0,1.96-.31,2.85-.95h.3v2.12c-1.09,.46-2.25,.69-3.43,.69-3.27,0-5.12-1.52-5.12-4.29s1.8-4.41,4.67-4.41c2.68,0,4.04,1.38,4.04,3.93v.92Zm-2.62-1.54c-.02-1.09-.56-1.67-1.62-1.67s-1.71,.57-1.8,1.67h3.42Z"/><path class="cls-2" d="M469.99,58.7h-6.39v-1.94h1.79v-7.03h-1.79v-1.94h6.39v1.94h-1.78v7.03h1.78v1.94Z"/><path class="cls-2" d="M479.8,58.7h-2.66v-4.11c0-.92-.08-1.51-.24-1.78-.15-.29-.51-.42-1.09-.42-.39,0-.87,.15-1.41,.48v5.83h-2.64v-8.22h2.64v.9c.95-.75,1.85-1.12,2.67-1.12,1.14,0,1.94,.47,2.42,1.43,1.14-.96,2.15-1.43,3-1.43,1.82,0,2.71,1.02,2.71,3.09v5.36h-2.64v-4.11c0-.9-.08-1.5-.23-1.78-.17-.29-.52-.42-1.12-.42-.38,0-.84,.15-1.41,.48v5.83Z"/><path class="cls-2" d="M489.9,61.72h-2.64v-11.23h2.64v.85c.9-.73,1.8-1.08,2.7-1.08,2.07,0,3.24,1.64,3.24,4.21,0,1.29-.36,2.34-1.07,3.17-.71,.81-1.6,1.23-2.68,1.23-.75,0-1.49-.2-2.19-.57v3.42Zm0-4.89c.25,.1,.65,.15,1.16,.15,1.38,0,2.07-.81,2.07-2.44s-.53-2.29-1.71-2.29c-.51,0-1.02,.15-1.52,.45v4.14Z"/><path class="cls-2" d="M496.77,54.59c0-2.76,1.7-4.36,4.5-4.36s4.51,1.69,4.51,4.36-1.65,4.37-4.51,4.37-4.5-1.67-4.5-4.37Zm4.5-2.53c-1.17,0-1.77,.85-1.77,2.55s.6,2.52,1.8,2.52,1.74-.84,1.74-2.52-.58-2.55-1.77-2.55Z"/><path class="cls-2" d="M506.74,56.11h.24c1.03,.7,2.11,1.06,3.24,1.06,1.02,0,1.53-.22,1.53-.67,0-.22-.11-.38-.33-.5-.21-.1-.71-.22-1.53-.34-2.07-.32-3.1-1.19-3.1-2.64,0-1.59,1.63-2.76,4.2-2.76,1.08,0,2.12,.2,3.09,.58v2.07h-.23c-.93-.6-1.88-.9-2.87-.9-.82,0-1.5,.23-1.5,.68,0,.22,.09,.39,.3,.51,.21,.1,.76,.24,1.69,.39,1.17,.2,1.96,.51,2.37,.93,.39,.42,.6,.95,.6,1.58,0,1.7-1.63,2.83-4.27,2.83-1.27,0-2.42-.22-3.43-.66v-2.16Z"/><path class="cls-2" d="M515.26,56.11h.24c1.04,.7,2.12,1.06,3.24,1.06,1.02,0,1.53-.22,1.53-.67,0-.22-.1-.38-.33-.5-.21-.1-.7-.22-1.53-.34-2.07-.32-3.11-1.19-3.11-2.64,0-1.59,1.64-2.76,4.2-2.76,1.08,0,2.12,.2,3.09,.58v2.07h-.22c-.93-.6-1.88-.9-2.87-.9-.83,0-1.5,.23-1.5,.68,0,.22,.09,.39,.3,.51,.21,.1,.77,.24,1.7,.39,1.17,.2,1.96,.51,2.37,.93,.39,.42,.6,.95,.6,1.58,0,1.7-1.63,2.83-4.27,2.83-1.28,0-2.42-.22-3.44-.66v-2.16Z"/><path class="cls-2" d="M527.05,49.31h-2.79v-2.01h2.79v2.01Zm-.08,9.39h-2.64v-8.22h2.64v8.22Z"/><path class="cls-2" d="M531.61,58.7h-2.52v-11.4h2.64v4.03c.9-.73,1.8-1.08,2.7-1.08,2.07,0,3.24,1.59,3.24,4.21,0,1.31-.36,2.36-1.08,3.17-.71,.81-1.61,1.23-2.67,1.23-.83,0-1.56-.2-2.19-.57l-.12,.41Zm.12-1.89c.32,.12,.69,.18,1.16,.18,1.38,0,2.07-.83,2.07-2.46,0-1.46-.41-2.29-1.71-2.29-.51,0-1.02,.15-1.52,.45v4.12Z"/><path class="cls-2" d="M541.84,58.7h-2.64v-11.4h2.64v11.4Z"/><path class="cls-2" d="M552.06,55.07h-6.03c.09,1.33,.99,2,2.73,2,1.02,0,1.96-.32,2.85-.95h.3v2.12c-1.09,.46-2.25,.69-3.43,.69-3.27,0-5.12-1.51-5.12-4.29s1.8-4.41,4.67-4.41c2.68,0,4.04,1.38,4.04,3.93v.92Zm-2.62-1.54c-.02-1.09-.56-1.67-1.62-1.67s-1.71,.57-1.8,1.67h3.42Z"/></g></g></svg>