<?xml version="1.0" encoding="UTF-8"?><svg id="text_02" xmlns="http://www.w3.org/2000/svg" width="728" height="90" viewBox="0 0 728 90"><defs><style>.cls-1{fill:none;}.cls-2{fill:#503291;}</style></defs><rect class="cls-1" width="728" height="90"/><g><path class="cls-2" d="M415.35,30.24l-2.75,10.18h-2.9l-1.83-6.64-1.76,6.64h-2.91l-2.75-10.18h2.75l1.57,7,1.88-7h2.62l1.78,7,1.64-7h2.68Z"/><path class="cls-2" d="M423.92,37.03h-5.63c.08,1.25,.92,1.86,2.55,1.86,.95,0,1.83-.29,2.66-.88h.28v1.97c-1.02,.43-2.1,.64-3.21,.64-3.05,0-4.78-1.42-4.78-4.01s1.68-4.12,4.36-4.12c2.51,0,3.77,1.29,3.77,3.67v.85Zm-2.45-1.44c-.01-1.02-.52-1.55-1.51-1.55s-1.6,.53-1.68,1.55h3.19Z"/><path class="cls-2" d="M428.77,29.78l-1.99,4.03h-1.6l1.08-4.03h2.51Z"/><path class="cls-2" d="M433.03,40.42h-2.47v-10.65h2.47v10.65Z"/><path class="cls-2" d="M437.68,40.42h-2.46v-10.65h2.46v10.65Z"/><path class="cls-2" d="M452.23,40.42h-2.48v-3.81c0-.81-.08-1.37-.24-1.65-.15-.29-.53-.43-1.11-.43-.43,0-.91,.14-1.43,.45v5.45h-2.47v-10.65h2.47v3.81c.9-.7,1.76-1.05,2.61-1.05,1.71,0,2.65,1.04,2.65,2.89v5Z"/><path class="cls-2" d="M461.9,37.03h-5.63c.08,1.25,.92,1.86,2.55,1.86,.95,0,1.83-.29,2.66-.88h.28v1.97c-1.02,.43-2.1,.64-3.21,.64-3.05,0-4.78-1.42-4.78-4.01s1.68-4.12,4.36-4.12c2.51,0,3.77,1.29,3.77,3.67v.85Zm-2.45-1.44c-.01-1.02-.52-1.55-1.51-1.55s-1.6,.53-1.68,1.55h3.19Z"/><path class="cls-2" d="M465.96,40.42h-2.47v-10.65h2.47v10.65Z"/><path class="cls-2" d="M470.6,43.24h-2.47v-10.49h2.47v.8c.84-.69,1.68-1.01,2.52-1.01,1.93,0,3.03,1.53,3.03,3.94,0,1.2-.34,2.18-.99,2.96-.66,.76-1.5,1.15-2.51,1.15-.7,0-1.39-.18-2.04-.53v3.19Zm0-4.57c.24,.1,.6,.14,1.08,.14,1.29,0,1.93-.76,1.93-2.28s-.49-2.14-1.6-2.14c-.48,0-.95,.14-1.42,.42v3.87Z"/><path class="cls-2" d="M485.91,37.71l1.75-4.96h2.52l-4.26,10.49h-2.67l1.22-2.87-2.98-7.62h2.58l1.85,4.96Z"/><path class="cls-2" d="M490.71,36.59c0-2.58,1.58-4.08,4.2-4.08s4.22,1.58,4.22,4.08-1.54,4.08-4.22,4.08-4.2-1.56-4.2-4.08Zm4.2-2.37c-1.09,0-1.65,.8-1.65,2.38s.56,2.35,1.68,2.35,1.62-.79,1.62-2.35-.55-2.38-1.65-2.38Z"/><path class="cls-2" d="M508.39,40.42h-2.45v-.85c-.57,.43-1.05,.71-1.4,.85-.35,.14-.74,.21-1.21,.21-1.71,0-2.65-.98-2.65-2.89v-5h2.47v3.81c0,.97,.11,1.55,.31,1.78,.2,.21,.55,.31,1.04,.31s.95-.15,1.44-.46v-5.44h2.45v7.68Z"/><path class="cls-2" d="M516.13,35.09h-.21l-.31-.06c-.24-.04-.5-.04-.78-.06-.64,0-1.25,.11-1.79,.31v5.14h-2.47v-7.68h2.47v1.12c.87-.77,1.71-1.15,2.52-1.15,.22,0,.41,0,.57,.03v2.34Z"/><path class="cls-2" d="M400.64,55h.22c.97,.66,1.97,1,3.03,1,.95,0,1.43-.21,1.43-.63,0-.21-.1-.35-.31-.46-.2-.1-.66-.21-1.43-.32-1.93-.29-2.9-1.11-2.9-2.47,0-1.48,1.53-2.58,3.92-2.58,1.01,0,1.98,.18,2.89,.55v1.93h-.21c-.87-.56-1.75-.84-2.68-.84-.77,0-1.4,.21-1.4,.63,0,.21,.08,.36,.28,.48,.2,.1,.71,.22,1.58,.36,1.09,.18,1.83,.48,2.21,.87,.36,.39,.56,.88,.56,1.47,0,1.58-1.53,2.65-3.99,2.65-1.19,0-2.26-.21-3.21-.62v-2.02Z"/><path class="cls-2" d="M415.94,52.24h-.35c-.7-.63-1.44-.95-2.23-.95-1.32,0-2.04,.9-2.04,2.33,0,1.5,.69,2.26,2.09,2.26,.84,0,1.57-.31,2.19-.94h.35v2.1c-.84,.39-1.71,.6-2.61,.6-2.83,0-4.57-1.4-4.57-4.02s1.79-4.08,4.48-4.08c.92,0,1.82,.2,2.69,.6v2.1Z"/><path class="cls-2" d="M419.95,48.66h-2.61v-1.88h2.61v1.88Zm-.07,8.77h-2.46v-7.68h2.46v7.68Z"/><path class="cls-2" d="M429.63,54.03h-5.63c.08,1.25,.92,1.86,2.55,1.86,.95,0,1.83-.29,2.66-.88h.28v1.97c-1.02,.43-2.1,.64-3.21,.64-3.05,0-4.78-1.42-4.78-4.01s1.68-4.12,4.36-4.12c2.51,0,3.77,1.29,3.77,3.67v.85Zm-2.45-1.44c-.01-1.02-.52-1.55-1.51-1.55s-1.6,.53-1.68,1.55h3.19Z"/><path class="cls-2" d="M438.94,57.42h-2.48v-3.81c0-.81-.08-1.37-.24-1.65-.15-.29-.53-.43-1.11-.43-.43,0-.91,.14-1.43,.45v5.45h-2.46v-7.68h2.46v.84c.9-.7,1.77-1.05,2.61-1.05,1.71,0,2.65,1.04,2.65,2.89v5Z"/><path class="cls-2" d="M447.66,52.24h-.35c-.7-.63-1.44-.95-2.23-.95-1.32,0-2.04,.9-2.04,2.33,0,1.5,.69,2.26,2.09,2.26,.84,0,1.57-.31,2.19-.94h.35v2.1c-.84,.39-1.71,.6-2.61,.6-2.83,0-4.57-1.4-4.57-4.02s1.79-4.08,4.48-4.08c.92,0,1.82,.2,2.69,.6v2.1Z"/><path class="cls-2" d="M456.7,54.03h-5.63c.08,1.25,.92,1.86,2.55,1.86,.95,0,1.83-.29,2.66-.88h.28v1.97c-1.02,.43-2.1,.64-3.21,.64-3.05,0-4.78-1.42-4.78-4.01s1.68-4.12,4.36-4.12c2.51,0,3.77,1.29,3.77,3.67v.85Zm-2.45-1.44c-.01-1.02-.52-1.55-1.51-1.55s-1.6,.53-1.68,1.55h3.19Z"/><path class="cls-2" d="M465.41,57.42h-2.46v-10.65h2.46v10.65Z"/><path class="cls-2" d="M475.16,54.03h-5.63c.08,1.25,.92,1.86,2.55,1.86,.95,0,1.83-.29,2.66-.88h.28v1.97c-1.02,.43-2.1,.64-3.21,.64-3.05,0-4.78-1.42-4.78-4.01s1.68-4.12,4.36-4.12c2.51,0,3.77,1.29,3.77,3.67v.85Zm-2.45-1.44c-.01-1.02-.52-1.55-1.51-1.55s-1.6,.53-1.68,1.55h3.19Z"/><path class="cls-2" d="M481.4,56.61c-1.01,.8-1.57,1.02-2.65,1.02-1.44,0-2.58-1.01-2.58-2.41,0-.9,.34-1.57,1.04-2,.69-.46,2.09-.74,4.2-.84v-.04c0-.77-.56-1.12-2.04-1.12-.53,0-1.29,.18-2.3,.55h-.22v-1.86c1.08-.25,2.07-.38,3.03-.38,2.8,0,3.96,.84,3.96,2.68v5.22h-2.44v-.81Zm0-2.79c-1.15,.08-1.88,.22-2.21,.38-.34,.17-.5,.43-.5,.83,0,.7,.38,.94,1.3,.94,.5,0,.98-.18,1.41-.55v-1.6Z"/><path class="cls-2" d="M493.43,57.42h-2.47v-.8c-.81,.67-1.64,1.01-2.46,1.01-1.88,0-3.08-1.55-3.08-3.99,0-1.23,.34-2.21,1.01-2.97,.69-.77,1.51-1.13,2.51-1.13,.64,0,1.33,.17,2.03,.52v-3.28h2.47v10.65Zm-2.47-5.88c-.32-.14-.67-.21-1.06-.21-1.3,0-1.95,.76-1.95,2.28s.49,2.14,1.64,2.14c.48,0,.94-.14,1.37-.45v-3.77Z"/><path class="cls-2" d="M505.17,57.35c-.53,.14-1.18,.22-1.93,.22-1.91,0-2.84-.67-2.84-2.58v-3.59h-1.01v-1.67h1.01v-2.2h2.46v2.2h2.31v1.67h-2.31v2.72c0,.56,.03,.94,.07,1.12,.08,.36,.38,.64,1.09,.64,.31,0,.62-.07,.94-.22h.21v1.68Z"/><path class="cls-2" d="M514.22,57.42h-2.48v-3.81c0-.81-.08-1.37-.24-1.65-.15-.29-.53-.43-1.11-.43-.43,0-.91,.14-1.43,.45v5.45h-2.46v-10.65h2.46v3.81c.9-.7,1.77-1.05,2.61-1.05,1.71,0,2.65,1.04,2.65,2.89v5Z"/><path class="cls-2" d="M523.89,54.03h-5.63c.08,1.25,.92,1.86,2.55,1.86,.95,0,1.83-.29,2.66-.88h.28v1.97c-1.02,.43-2.1,.64-3.21,.64-3.05,0-4.78-1.42-4.78-4.01s1.68-4.12,4.36-4.12c2.51,0,3.77,1.29,3.77,3.67v.85Zm-2.45-1.44c-.01-1.02-.52-1.55-1.51-1.55s-1.6,.53-1.68,1.55h3.19Z"/><path class="cls-2" d="M542.39,49.75l-2.38,7.68h-2.62l-1.57-5.18-1.54,5.18h-2.65l-2.35-7.68h2.59l1.3,5.29,1.64-5.29h2.18l1.57,5.29,1.29-5.29h2.54Z"/><path class="cls-2" d="M548.35,56.61c-1.01,.8-1.57,1.02-2.65,1.02-1.44,0-2.58-1.01-2.58-2.41,0-.9,.34-1.57,1.04-2,.69-.46,2.09-.74,4.2-.84v-.04c0-.77-.56-1.12-2.04-1.12-.53,0-1.29,.18-2.3,.55h-.22v-1.86c1.08-.25,2.07-.38,3.03-.38,2.8,0,3.96,.84,3.96,2.68v5.22h-2.44v-.81Zm0-2.79c-1.15,.08-1.88,.22-2.21,.38-.34,.17-.5,.43-.5,.83,0,.7,.38,.94,1.3,.94,.5,0,.98-.18,1.41-.55v-1.6Z"/><path class="cls-2" d="M556.24,54.71l1.75-4.96h2.52l-4.26,10.49h-2.67l1.22-2.87-2.98-7.62h2.58l1.85,4.96Z"/><path class="cls-2" d="M563.66,57.42h-2.56v-2.69h2.56v2.69Z"/></g></svg>