<?xml version="1.0" encoding="UTF-8"?><svg id="text_01" xmlns="http://www.w3.org/2000/svg" width="728" height="90" viewBox="0 0 728 90"><defs><style>.cls-1{fill:none;}.cls-2{fill:#503291;}</style></defs><rect class="cls-1" width="728" height="90"/><g><path class="cls-2" d="M409.27,32.21h-3.18v8.21h-2.63v-8.21h-3.18v-1.97h8.99v1.97Z"/><path class="cls-2" d="M414.65,39.61c-1.01,.8-1.57,1.02-2.65,1.02-1.44,0-2.58-1.01-2.58-2.41,0-.9,.34-1.57,1.04-2,.69-.46,2.09-.74,4.2-.84v-.04c0-.77-.56-1.12-2.04-1.12-.53,0-1.29,.18-2.3,.55h-.22v-1.86c1.08-.25,2.07-.38,3.03-.38,2.8,0,3.96,.84,3.96,2.68v5.22h-2.44v-.81Zm0-2.79c-1.15,.08-1.88,.22-2.21,.38-.34,.17-.5,.43-.5,.83,0,.7,.38,.94,1.3,.94,.5,0,.98-.18,1.42-.55v-1.6Z"/><path class="cls-2" d="M424.77,35.09h-.21l-.31-.06c-.24-.04-.5-.04-.78-.06-.64,0-1.25,.11-1.79,.31v5.14h-2.47v-7.68h2.47v1.12c.87-.77,1.71-1.15,2.52-1.15,.22,0,.41,0,.57,.03v2.34Z"/><path class="cls-2" d="M433.49,39.54c0,2.58-1.29,3.78-4.27,3.78-1.01,0-1.97-.11-2.91-.34v-1.92h.29c.85,.31,1.61,.48,2.27,.48,1.54,0,2.16-.41,2.16-1.88v-.14c-.63,.53-1.37,.78-2.19,.78-2.24,0-3.36-1.3-3.36-3.92,0-1.21,.34-2.14,1.01-2.83,.67-.69,1.5-1.02,2.47-1.02,.78,0,1.47,.18,2.06,.55l.1-.34h2.38v6.79Zm-2.46-5.01c-.32-.14-.67-.2-1.07-.2-1.3,0-1.95,.7-1.95,2.12,0,1.51,.57,1.98,1.64,1.98,.48,0,.94-.14,1.37-.42v-3.47Z"/><path class="cls-2" d="M443.24,37.03h-5.63c.08,1.25,.92,1.86,2.55,1.86,.95,0,1.83-.29,2.66-.88h.28v1.97c-1.02,.43-2.1,.64-3.21,.64-3.05,0-4.78-1.42-4.78-4.01s1.68-4.12,4.36-4.12c2.51,0,3.77,1.29,3.77,3.67v.85Zm-2.45-1.44c-.01-1.02-.52-1.55-1.51-1.55s-1.6,.53-1.68,1.55h3.19Z"/><path class="cls-2" d="M449.75,40.35c-.53,.14-1.18,.22-1.93,.22-1.91,0-2.84-.67-2.84-2.58v-3.59h-1.01v-1.67h1.01v-2.2h2.46v2.2h2.31v1.67h-2.31v2.72c0,.56,.03,.94,.07,1.12,.08,.36,.38,.64,1.09,.64,.31,0,.62-.07,.94-.22h.21v1.68Z"/><path class="cls-2" d="M462.33,35.24h-.35c-.7-.63-1.44-.95-2.23-.95-1.32,0-2.04,.9-2.04,2.33,0,1.5,.69,2.26,2.09,2.26,.84,0,1.57-.31,2.18-.94h.35v2.1c-.84,.39-1.71,.6-2.61,.6-2.83,0-4.57-1.4-4.57-4.02s1.79-4.08,4.48-4.08c.92,0,1.82,.2,2.69,.6v2.1Z"/><path class="cls-2" d="M468.46,39.61c-1.01,.8-1.57,1.02-2.65,1.02-1.44,0-2.58-1.01-2.58-2.41,0-.9,.34-1.57,1.04-2,.69-.46,2.09-.74,4.2-.84v-.04c0-.77-.56-1.12-2.04-1.12-.53,0-1.29,.18-2.3,.55h-.22v-1.86c1.08-.25,2.07-.38,3.03-.38,2.8,0,3.96,.84,3.96,2.68v5.22h-2.44v-.81Zm0-2.79c-1.15,.08-1.88,.22-2.21,.38-.34,.17-.5,.43-.5,.83,0,.7,.38,.94,1.3,.94,.5,0,.98-.18,1.42-.55v-1.6Z"/><path class="cls-2" d="M480.74,40.42h-2.48v-3.81c0-.81-.08-1.37-.24-1.65-.15-.29-.53-.43-1.11-.43-.43,0-.91,.14-1.43,.45v5.45h-2.47v-7.68h2.47v.84c.9-.7,1.76-1.05,2.61-1.05,1.71,0,2.65,1.04,2.65,2.89v5Z"/><path class="cls-2" d="M489.46,35.24h-.35c-.7-.63-1.44-.95-2.23-.95-1.32,0-2.04,.9-2.04,2.33,0,1.5,.69,2.26,2.09,2.26,.84,0,1.57-.31,2.18-.94h.35v2.1c-.84,.39-1.71,.6-2.61,.6-2.83,0-4.57-1.4-4.57-4.02s1.79-4.08,4.48-4.08c.92,0,1.82,.2,2.69,.6v2.1Z"/><path class="cls-2" d="M498.51,37.03h-5.63c.08,1.25,.92,1.86,2.55,1.86,.95,0,1.83-.29,2.66-.88h.28v1.97c-1.02,.43-2.1,.64-3.21,.64-3.05,0-4.78-1.42-4.78-4.01s1.68-4.12,4.36-4.12c2.51,0,3.77,1.29,3.77,3.67v.85Zm-2.45-1.44c-.01-1.02-.52-1.55-1.51-1.55s-1.6,.53-1.68,1.55h3.19Z"/><path class="cls-2" d="M505.66,35.09h-.21l-.31-.06c-.24-.04-.5-.04-.78-.06-.64,0-1.25,.11-1.79,.31v5.14h-2.47v-7.68h2.47v1.12c.87-.77,1.71-1.15,2.52-1.15,.22,0,.41,0,.57,.03v2.34Z"/><path class="cls-2" d="M523.82,32.75l-2.38,7.68h-2.62l-1.57-5.18-1.54,5.18h-2.65l-2.35-7.68h2.59l1.3,5.29,1.64-5.29h2.18l1.57,5.29,1.29-5.29h2.54Z"/><path class="cls-2" d="M527.67,31.66h-2.61v-1.88h2.61v1.88Zm-.07,8.77h-2.47v-7.68h2.47v7.68Z"/><path class="cls-2" d="M534.7,40.35c-.53,.14-1.18,.22-1.93,.22-1.91,0-2.84-.67-2.84-2.58v-3.59h-1.01v-1.67h1.01v-2.2h2.47v2.2h2.31v1.67h-2.31v2.72c0,.56,.03,.94,.07,1.12,.08,.36,.38,.64,1.09,.64,.31,0,.62-.07,.94-.22h.21v1.68Z"/><path class="cls-2" d="M543.74,40.42h-2.48v-3.81c0-.81-.08-1.37-.24-1.65-.15-.29-.53-.43-1.11-.43-.43,0-.91,.14-1.43,.45v5.45h-2.46v-10.65h2.46v3.81c.9-.7,1.77-1.05,2.61-1.05,1.71,0,2.65,1.04,2.65,2.89v5Z"/><path class="cls-2" d="M408.88,57.42h-2.48v-3.81c0-.81-.08-1.37-.24-1.65-.15-.29-.53-.43-1.11-.43-.43,0-.91,.14-1.43,.45v5.45h-2.46v-7.68h2.46v.84c.9-.7,1.77-1.05,2.61-1.05,1.71,0,2.65,1.04,2.65,2.89v5Z"/><path class="cls-2" d="M415.64,56.61c-1.01,.8-1.57,1.02-2.65,1.02-1.44,0-2.58-1.01-2.58-2.41,0-.9,.34-1.57,1.04-2,.69-.46,2.09-.74,4.2-.84v-.04c0-.77-.56-1.12-2.04-1.12-.53,0-1.29,.18-2.3,.55h-.22v-1.86c1.08-.25,2.07-.38,3.03-.38,2.8,0,3.96,.84,3.96,2.68v5.22h-2.44v-.81Zm0-2.79c-1.15,.08-1.88,.22-2.21,.38-.34,.17-.5,.43-.5,.83,0,.7,.38,.94,1.3,.94,.5,0,.98-.18,1.41-.55v-1.6Z"/><path class="cls-2" d="M427.92,57.42h-2.48v-3.81c0-.81-.08-1.37-.24-1.65-.15-.29-.53-.43-1.11-.43-.43,0-.91,.14-1.43,.45v5.45h-2.46v-7.68h2.46v.84c.9-.7,1.77-1.05,2.61-1.05,1.71,0,2.65,1.04,2.65,2.89v5Z"/><path class="cls-2" d="M429.47,53.59c0-2.58,1.58-4.08,4.2-4.08s4.22,1.58,4.22,4.08-1.54,4.08-4.22,4.08-4.2-1.56-4.2-4.08Zm4.2-2.37c-1.09,0-1.65,.8-1.65,2.38s.56,2.35,1.68,2.35,1.62-.79,1.62-2.35-.55-2.38-1.65-2.38Z"/><path class="cls-2" d="M444.31,53.88h-5.21v-1.98h5.21v1.98Z"/><path class="cls-2" d="M453.55,57.42h-2.47v-.8c-.81,.67-1.64,1.01-2.46,1.01-1.88,0-3.08-1.55-3.08-3.99,0-1.23,.34-2.21,1.01-2.97,.69-.77,1.51-1.13,2.51-1.13,.64,0,1.33,.17,2.03,.52v-3.28h2.47v10.65Zm-2.47-5.88c-.32-.14-.67-.21-1.06-.21-1.3,0-1.95,.76-1.95,2.28s.49,2.14,1.64,2.14c.48,0,.94-.14,1.37-.45v-3.77Z"/><path class="cls-2" d="M463.3,54.03h-5.63c.08,1.25,.92,1.86,2.55,1.86,.95,0,1.83-.29,2.66-.88h.28v1.97c-1.02,.43-2.1,.64-3.21,.64-3.05,0-4.78-1.42-4.78-4.01s1.68-4.12,4.36-4.12c2.51,0,3.77,1.29,3.77,3.67v.85Zm-2.45-1.44c-.01-1.02-.52-1.55-1.51-1.55s-1.6,.53-1.68,1.55h3.19Z"/><path class="cls-2" d="M467.36,57.42h-2.47v-10.65h2.47v10.65Z"/><path class="cls-2" d="M472.07,48.66h-2.61v-1.88h2.61v1.88Zm-.07,8.77h-2.46v-7.68h2.46v7.68Z"/><path class="cls-2" d="M481.92,49.75l-2.96,7.68h-2.79l-2.94-7.68h2.61l1.78,5.28,1.75-5.28h2.55Z"/><path class="cls-2" d="M490.57,54.03h-5.63c.08,1.25,.92,1.86,2.55,1.86,.95,0,1.83-.29,2.66-.88h.28v1.97c-1.02,.43-2.1,.64-3.21,.64-3.05,0-4.78-1.42-4.78-4.01s1.68-4.12,4.36-4.12c2.51,0,3.77,1.29,3.77,3.67v.85Zm-2.45-1.44c-.01-1.02-.52-1.55-1.51-1.55s-1.6,.53-1.68,1.55h3.19Z"/><path class="cls-2" d="M497.72,52.09h-.21l-.31-.06c-.24-.04-.5-.04-.79-.06-.64,0-1.25,.11-1.79,.31v5.14h-2.46v-7.68h2.46v1.12c.87-.77,1.71-1.15,2.52-1.15,.22,0,.41,0,.57,.03v2.34Z"/><path class="cls-2" d="M506.5,54.03h-5.63c.08,1.25,.92,1.86,2.55,1.86,.95,0,1.83-.29,2.66-.88h.28v1.97c-1.02,.43-2.1,.64-3.21,.64-3.05,0-4.78-1.42-4.78-4.01s1.68-4.12,4.36-4.12c2.51,0,3.77,1.29,3.77,3.67v.85Zm-2.45-1.44c-.01-1.02-.52-1.55-1.51-1.55s-1.6,.53-1.68,1.55h3.19Z"/><path class="cls-2" d="M515.56,57.42h-2.46v-.8c-.81,.67-1.64,1.01-2.47,1.01-1.88,0-3.08-1.55-3.08-3.99,0-1.23,.34-2.21,1.01-2.97,.69-.77,1.51-1.13,2.51-1.13,.64,0,1.33,.17,2.03,.52v-3.28h2.46v10.65Zm-2.46-5.88c-.32-.14-.67-.21-1.07-.21-1.3,0-1.95,.76-1.95,2.28s.49,2.14,1.64,2.14c.48,0,.94-.14,1.37-.45v-3.77Z"/><path class="cls-2" d="M529.9,57.42h-2.48v-3.84c0-.85-.07-1.42-.22-1.67-.14-.27-.48-.39-1.02-.39-.36,0-.81,.14-1.32,.45v5.45h-2.47v-7.68h2.47v.84c.88-.7,1.72-1.05,2.49-1.05,1.06,0,1.81,.43,2.25,1.33,1.06-.9,2-1.33,2.8-1.33,1.7,0,2.54,.95,2.54,2.89v5h-2.46v-3.84c0-.84-.07-1.4-.21-1.67-.15-.27-.49-.39-1.05-.39-.35,0-.78,.14-1.32,.45v5.45Z"/><path class="cls-2" d="M544.62,54.03h-5.63c.08,1.25,.92,1.86,2.55,1.86,.95,0,1.83-.29,2.66-.88h.28v1.97c-1.02,.43-2.1,.64-3.21,.64-3.05,0-4.78-1.42-4.78-4.01s1.68-4.12,4.36-4.12c2.51,0,3.77,1.29,3.77,3.67v.85Zm-2.45-1.44c-.01-1.02-.52-1.55-1.51-1.55s-1.6,.53-1.68,1.55h3.19Z"/><path class="cls-2" d="M553.68,57.42h-2.47v-.8c-.81,.67-1.64,1.01-2.46,1.01-1.88,0-3.08-1.55-3.08-3.99,0-1.23,.34-2.21,1.01-2.97,.69-.77,1.51-1.13,2.51-1.13,.64,0,1.33,.17,2.03,.52v-3.28h2.47v10.65Zm-2.47-5.88c-.32-.14-.67-.21-1.06-.21-1.3,0-1.95,.76-1.95,2.28s.49,2.14,1.64,2.14c.48,0,.94-.14,1.37-.45v-3.77Z"/><path class="cls-2" d="M558.4,48.66h-2.61v-1.88h2.61v1.88Zm-.07,8.77h-2.47v-7.68h2.47v7.68Z"/><path class="cls-2" d="M567.12,52.24h-.35c-.7-.63-1.44-.95-2.23-.95-1.32,0-2.04,.9-2.04,2.33,0,1.5,.69,2.26,2.09,2.26,.84,0,1.57-.31,2.18-.94h.35v2.1c-.84,.39-1.71,.6-2.61,.6-2.83,0-4.57-1.4-4.57-4.02s1.79-4.08,4.48-4.08c.92,0,1.82,.2,2.69,.6v2.1Z"/><path class="cls-2" d="M571.14,48.66h-2.61v-1.88h2.61v1.88Zm-.07,8.77h-2.47v-7.68h2.47v7.68Z"/><path class="cls-2" d="M580.97,57.42h-2.48v-3.81c0-.81-.08-1.37-.24-1.65-.15-.29-.53-.43-1.11-.43-.43,0-.91,.14-1.43,.45v5.45h-2.46v-7.68h2.46v.84c.9-.7,1.77-1.05,2.61-1.05,1.71,0,2.65,1.04,2.65,2.89v5Z"/><path class="cls-2" d="M590.64,54.03h-5.63c.08,1.25,.92,1.86,2.55,1.86,.95,0,1.83-.29,2.66-.88h.28v1.97c-1.02,.43-2.1,.64-3.21,.64-3.05,0-4.78-1.42-4.78-4.01s1.68-4.12,4.36-4.12c2.51,0,3.77,1.29,3.77,3.67v.85Zm-2.45-1.44c-.01-1.02-.52-1.55-1.51-1.55s-1.6,.53-1.68,1.55h3.19Z"/><path class="cls-2" d="M596.11,54.69h-2.41v-2.31c1.72-.42,2.58-1.15,2.58-2.17,0-.84-.56-1.26-1.69-1.26-.69,0-1.44,.25-2.24,.76h-.27v-2.09c1.02-.39,2.07-.59,3.19-.59,2.24,0,3.67,1.09,3.67,2.7s-.9,2.66-2.83,3.39v1.57Zm.2,2.73h-2.76v-1.81h2.76v1.81Z"/></g></svg>