<?xml version="1.0" encoding="UTF-8"?><svg id="sigmaaldrich_728x90" xmlns="http://www.w3.org/2000/svg" width="728" height="90" xmlns:xlink="http://www.w3.org/1999/xlink" viewBox="0 0 728 90"><defs><style>.cls-1{fill:none;}.cls-2{clip-path:url(#clippath);}.cls-3{fill:#e61e50;}.cls-4{fill:#ffc832;}</style><clipPath id="clippath"><rect class="cls-1" width="728" height="90"/></clipPath></defs><rect class="cls-1" width="728" height="90"/><g class="cls-2"><path class="cls-3" d="M-13.07,210.06c-.26,8.89,4.87,11.22,11.39,5.17L163.83,62.27c6.53-6.05,5.84-15.09-1.52-20.08L8.44-59.32c-7.36-5-13.59-1.81-13.85,7.08L-13.07,210.06Z"/></g><g><path class="cls-4" d="M61.4,47.69c0,.78-.63,1.49-1.49,1.49-1.22,0-1.41-.65-1.41-1.3,0-.36,.12-.86,.73-1.14l2.18-1.03v1.98Zm-1.22-7.54c-2.08,0-3.51,1.36-3.51,3.15v.17c0,.29,.23,.53,.53,.53h1.01c.29,0,.53-.25,.53-.53v-.17c0-.74,.53-1.24,1.32-1.24,.84,0,1.34,.48,1.34,1.17,0,.55-.25,.76-.97,1.07l-2.33,.95c-1.15,.48-1.87,1.33-1.87,2.92,0,2.06,1.59,2.73,2.75,2.73,.99,0,1.89-.4,2.43-1.17v.42c0,.29,.25,.53,.55,.53h1.03c.31,0,.55-.25,.55-.53v-6.68c0-1.83-1.09-3.32-3.36-3.32"/><path class="cls-4" d="M52.19,40.15c-1.11,0-2.1,.61-2.48,1.47-.38-.74-1.24-1.47-2.33-1.47s-1.99,.59-2.37,1.47v-.61c0-.29-.25-.54-.55-.54h-1.05c-.3,0-.55,.25-.55,.54v9.14c0,.29,.25,.53,.55,.53h1.05c.31,0,.55-.25,.55-.53v-6.57c0-.78,.53-1.53,1.37-1.53s1.35,.61,1.35,1.53v6.57c0,.29,.25,.53,.55,.53h1.05c.3,0,.55-.25,.55-.53v-6.57c0-.78,.46-1.53,1.3-1.53s1.35,.61,1.35,1.53v6.57c0,.29,.25,.53,.55,.53h1.05c.3,0,.55-.25,.55-.53v-7.18c0-1.47-1.05-2.83-2.52-2.83"/><path class="cls-4" d="M23.97,36.73c-2.4,0-3.97,1.43-3.97,3.84,0,1.09,.27,2.27,1.43,3.04l3.02,1.97c.67,.44,1.09,.71,1.09,1.49v.28c0,1.05-.55,1.7-1.6,1.7-.95,0-1.6-.73-1.6-1.7v-.78c0-.29-.25-.53-.55-.53h-1.22c-.31,0-.55,.25-.55,.53v.78c0,2.44,1.68,3.72,3.93,3.72s3.97-1.32,3.97-3.72c0-1.77-.25-2.52-1.7-3.46l-2.48-1.6c-.95-.61-1.35-.88-1.35-1.64v-.19c0-1.05,.55-1.7,1.6-1.7s1.6,.73,1.6,1.7v.42c0,.29,.25,.53,.55,.53h1.22c.31,0,.55-.25,.55-.53v-.42c0-2.46-1.66-3.72-3.93-3.72"/><path class="cls-4" d="M38.69,47.25c0,.78-.53,1.53-1.37,1.53s-1.35-.61-1.35-1.53v-3.47c0-.9,.5-1.53,1.35-1.53s1.37,.75,1.37,1.53v3.47Zm1.6-6.78h-1.05c-.31,0-.55,.25-.55,.53v.61c-.38-.88-1.15-1.47-2.25-1.47-1.35,0-2.64,1.18-2.64,2.64v5.08c0,1.6,1.22,2.82,2.64,2.82,1.11,0,1.87-.59,2.25-1.47v2.62c0,.78-.44,1.53-1.35,1.53-.84,0-1.34-.63-1.34-1.53,0-.28-.25-.53-.57-.53h-1.01c-.3,0-.55,.25-.55,.53,.04,1.93,1.6,3.44,3.49,3.44s3.49-1.62,3.49-3.59v-10.67c0-.29-.25-.53-.55-.53"/><path class="cls-4" d="M31.25,37.15h-1.05c-.3,0-.55,.25-.55,.53v.8c0,.28,.25,.53,.55,.53h1.05c.3,0,.55-.25,.55-.53v-.8c0-.29-.25-.53-.55-.53"/><path class="cls-4" d="M31.25,40.47h-1.05c-.3,0-.55,.25-.55,.53v9.14c0,.29,.25,.54,.55,.54h1.05c.3,0,.55-.25,.55-.54v-9.14c0-.29-.25-.53-.55-.53"/><path class="cls-4" d="M71.36,44.64h-5.56c-.29,0-.53,.25-.53,.55v.76c0,.31,.25,.55,.53,.55h5.56c.29,0,.53-.25,.53-.55v-.76c0-.31-.25-.55-.53-.55"/><path class="cls-4" d="M106.17,40.47h-1.05c-.3,0-.55,.25-.55,.53v9.14c0,.29,.25,.54,.55,.54h1.05c.3,0,.55-.25,.55-.54v-9.14c0-.29-.25-.53-.55-.53"/><path class="cls-4" d="M101.09,40.15c-1.05,0-1.91,.67-2.33,1.32v-.46c0-.29-.25-.54-.55-.54h-1.05c-.31,0-.55,.25-.55,.54v9.14c0,.29,.25,.53,.55,.53h1.05c.31,0,.55-.25,.55-.53v-6.8c0-.74,.53-1.3,1.18-1.3,.9,0,1.11,.55,1.11,1.3v.27c0,.29,.25,.53,.55,.53h1.05c.3,0,.55-.25,.55-.53v-1.2c0-1.34-.99-2.27-2.12-2.27"/><path class="cls-4" d="M106.17,37.15h-1.05c-.3,0-.55,.25-.55,.53v.8c0,.28,.25,.53,.55,.53h1.05c.3,0,.55-.25,.55-.53v-.8c0-.29-.25-.53-.55-.53"/><path class="cls-4" d="M121.56,40.15c-1.1,0-1.98,.59-2.37,1.47v-3.93c0-.29-.25-.53-.55-.53h-1.05c-.3,0-.55,.25-.55,.53v12.47c0,.29,.25,.53,.55,.53h1.05c.31,0,.55-.25,.55-.53v-6.57c0-.78,.53-1.53,1.37-1.53s1.35,.61,1.35,1.53v6.57c0,.29,.25,.53,.55,.53h1.05c.3,0,.55-.25,.55-.53v-7.18c0-1.47-1.05-2.83-2.52-2.83"/><path class="cls-4" d="M111.98,42.06c.88,0,1.37,.61,1.37,1.38,0,.28,.25,.53,.55,.53h1.05c.3,0,.55-.25,.55-.53,0-1.83-1.43-3.29-3.53-3.29s-3.53,1.49-3.53,3.36v4.14c0,1.87,1.45,3.36,3.53,3.36s3.53-1.49,3.53-3.36v-.15c0-.29-.25-.53-.55-.53h-1.05c-.3,0-.55,.25-.55,.53v.15c0,.78-.5,1.45-1.37,1.45-.82,0-1.38-.65-1.38-1.45v-4.14c0-.8,.55-1.45,1.38-1.45"/><path class="cls-4" d="M127.86,50.45c-1.07,0-1.93-.85-1.93-1.93s.86-1.92,1.93-1.92,1.92,.85,1.92,1.92-.86,1.93-1.92,1.93m0-4.08c-1.19,0-2.16,.97-2.16,2.15s.97,2.16,2.16,2.16,2.14-.97,2.14-2.16-.96-2.15-2.14-2.15"/><path class="cls-4" d="M128.22,47.99c0,.19-.15,.3-.33,.3h-.36v-.83h.36c.17,0,.33,.12,.33,.31v.22Zm.12,.5c.2-.02,.38-.24,.38-.54v-.28c0-.38-.33-.63-.63-.63h-.92c-.07,0-.14,.06-.14,.13v2.67c0,.08,.06,.13,.14,.13h.26c.08,0,.13-.06,.13-.13v-1.15h.37c.22,0,.29,.15,.29,.33v.82c0,.08,.06,.13,.13,.13h.27c.08,0,.13-.06,.13-.13v-.81c0-.31-.17-.5-.41-.54"/><path class="cls-4" d="M92.44,47.58c0,.78-.53,1.53-1.37,1.53s-1.36-.61-1.36-1.53v-3.8c0-.9,.5-1.53,1.36-1.53s1.37,.75,1.37,1.53v3.8Zm1.6-10.42h-1.05c-.31,0-.55,.25-.55,.53v3.93c-.38-.88-1.15-1.47-2.25-1.47-1.36,0-2.64,1.19-2.64,2.64v5.4c0,1.6,1.22,2.83,2.64,2.83,1.11,0,1.87-.59,2.25-1.47v.61c0,.29,.25,.53,.55,.53h1.05c.3,0,.55-.25,.55-.53v-12.47c0-.29-.25-.53-.55-.53"/><path class="cls-4" d="M85.09,37.15h-1.05c-.31,0-.56,.25-.56,.53v12.47c0,.29,.25,.53,.56,.53h1.05c.31,0,.55-.25,.55-.53v-12.47c0-.29-.25-.53-.55-.53"/><path class="cls-4" d="M76.15,45.88l1.39-6.34,1.4,6.34h-2.79Zm6,4.08l-2.88-12.47c-.04-.19-.21-.34-.44-.34h-2.56c-.23,0-.4,.15-.44,.34l-2.88,12.47c-.04,.15-.06,.31-.06,.33,0,.21,.17,.4,.42,.4h1.41c.23,0,.36-.19,.42-.42l.57-2.4h3.66l.57,2.4c.06,.23,.19,.42,.42,.42h1.41c.25,0,.42-.19,.42-.4,0-.02-.02-.17-.06-.33"/></g></svg>